<svg xmlns="http://www.w3.org/2000/svg" width="1980.183" height="126.487" viewBox="0 0 1980.183 126.487"><g transform="translate(0.066 0)"><path d="M151.716,413.066H1980V337.475s-124.53,53.172-276.245,53.172c-75.713,0-1044.322-103.581-1194.547-103.581-193.569,0-345.286,86.889-509.208,126" transform="translate(0 -287.066)" fill="#fdc54f"/><path d="M149.237,420.928H1947.646V371.314s-122.494,35.914-271.731,35.914c-74.475,0-1027.257-76.613-1175.027-76.613-190.407,0-339.643,64.643-500.888,90.313" transform="translate(32.355 -294.928)" fill="#008542"/><path d="M0,337.227s342.006,45.782,493.722,45.782c75.713,0,875.115-100.3,1044.037-76,163.214,23.478,278.319,66.817,442.242,106.057" transform="translate(0 -287.066)" fill="none" stroke="#fff" stroke-width="1"/></g></svg>