<svg xmlns="http://www.w3.org/2000/svg" width="1920.069" height="130" viewBox="0 0 1920.069 130"><g transform="translate(1 3)"><path d="M1771.958,287.066H0v77.991S120.693,310.2,267.734,310.2c73.381,0,1012.148,106.869,1157.745,106.869,187.606,0,334.648-89.647,493.521-130" transform="translate(0 -290.065)" fill="#fdc54f"/><path d="M1742.083,330.615H0v49.614s118.657-35.914,263.22-35.914c72.143,0,995.084,76.613,1138.225,76.613,184.443,0,329.006-64.642,485.2-90.313" transform="translate(-1 -333.615)" fill="#008542"/><path d="M1919,379.743s-331.47-46.2-478.511-46.2c-73.381,0-848.154,101.211-1011.872,76.692C270.431,386.544,158.872,342.81,0,303.213" transform="translate(0 -303.213)" fill="none" stroke="#00659a" stroke-width="1"/></g></svg>