<svg xmlns="http://www.w3.org/2000/svg" xmlns:xlink="http://www.w3.org/1999/xlink" width="156" height="34.137" viewBox="0 0 156 34.137"><defs><linearGradient id="a" y1="0.5" x2="1" y2="0.5" gradientUnits="objectBoundingBox"><stop offset="0" stop-color="#ffdc42"/><stop offset="1" stop-color="#f48100"/></linearGradient></defs><g transform="translate(-308.43 -290.491)"><path d="M523.924,295.366H479.811l1.52-4.875h44.124Z" transform="translate(-115.619 0)" fill="url(#a)"/><g transform="translate(308.43 297.601)"><path d="M464.43,312.357h-7.795l-8.343,8.278-4.365-8.278H436.1l7.014,13.4-10.834,10.817-3.258-24.217-6.993-.016L405.6,337.869l-3.352-9.034a12.755,12.755,0,0,0,4.212-1.548l.7-.442a10.126,10.126,0,0,0,4.337-6.007,7.028,7.028,0,0,0,.073-2.785,6.544,6.544,0,0,0-2.641-4.074,8.638,8.638,0,0,0-4.278-1.564l-.95-.059H390.115l-8.364,26.7h6.518l3.159-10.043c.778,0,2.544.009,4.451,0l3.682,10.04h11.8l3.83-5.942,10.02-.011.8,5.953h11.619l8.193-8.136,4.28,8.136h7.868l-7-13.259Zm-62.9,11.1h-8.359l1.792-5.69,8.095,0a3.857,3.857,0,0,1,.7.107,2.12,2.12,0,0,1,.788.453,1.4,1.4,0,0,1,.183.214,3.135,3.135,0,0,1,.178.275,1.9,1.9,0,0,1,.222.654,2.989,2.989,0,0,1-.113,1.231,4.263,4.263,0,0,1-1.5,2.008,3.591,3.591,0,0,1-.613.379,3.358,3.358,0,0,1-1.023.338C401.79,323.431,401.62,323.448,401.527,323.454Zm17.065,4.389,4.865-7.575,1.014,7.571ZM384.6,318.205a6.022,6.022,0,0,0-2.635-4.473,8.373,8.373,0,0,0-4.027-1.34l-.948-.035h-13.5l-8.365,26.7H372.5a11.2,11.2,0,0,0,6.284-2.352,9.115,9.115,0,0,0,3.389-4.891,6.689,6.689,0,0,0,.2-1.955,5.811,5.811,0,0,0-.4-1.855,5.7,5.7,0,0,0-1.662-2.3c.137-.083.361-.24.569-.4a9.4,9.4,0,0,0,3.294-4.248A7.95,7.95,0,0,0,384.6,318.205Zm-9.58,13.154a4.251,4.251,0,0,1-1.5,2.008,3.6,3.6,0,0,1-.611.379,3.378,3.378,0,0,1-1.022.338c-.085.013-.255.031-.349.035h-8.357l1.791-5.693h8.095a3.79,3.79,0,0,1,.7.107,2.128,2.128,0,0,1,.789.453,1.379,1.379,0,0,1,.183.214,3.114,3.114,0,0,1,.178.275,1.907,1.907,0,0,1,.221.652A3,3,0,0,1,375.02,331.359Zm3.326-10.666a4.248,4.248,0,0,1-1.5,2.008,3.527,3.527,0,0,1-.611.379,3.366,3.366,0,0,1-1.022.338c-.085.013-.255.03-.349.036h-8.357l1.791-5.69,8.095,0a3.853,3.853,0,0,1,.7.107,2.12,2.12,0,0,1,.789.453,1.386,1.386,0,0,1,.183.214c.04.056.161.235.178.275a1.91,1.91,0,0,1,.221.654A3,3,0,0,1,378.346,320.693Zm-17.315-8.336h-6.717l-5.169,16.492-.413,1.293a5.554,5.554,0,0,1-2.948,3.551,9.2,9.2,0,0,1-3.838.456,4.9,4.9,0,0,1-3.173-.783,2.383,2.383,0,0,1-.986-2.029,5.613,5.613,0,0,1,.243-1.408l.176-.637,5.3-16.934h-6.7l-5.5,17.555a9.118,9.118,0,0,0-.549,2.913,5.993,5.993,0,0,0,2.5,4.749c1.725,1.31,4.007,1.788,7.384,1.788,2.99,0,5.968.164,8.733-1.191,3.007-1.484,4.9-4.152,6.01-7.776ZM318.11,333.7a3.386,3.386,0,0,1-1.561-1.286,2.649,2.649,0,0,1-.38-1.46v-.036a6.3,6.3,0,0,1,.333-1.84l5.237-16.724h-7.453l-5.241,16.735a13.217,13.217,0,0,0-.548,2.425,7.85,7.85,0,0,0-.07.888,6.457,6.457,0,0,0,.147,1.343,6.307,6.307,0,0,0,3.483,4.344c1.49.762,3.66.96,6.439.963h8.915l1.543-4.918h-8.065A6.324,6.324,0,0,1,318.11,333.7Z" transform="translate(-308.43 -312.341)" fill="#007032"/></g></g></svg>